<mxfile host="app.diagrams.net" modified="2023-08-30T01:46:24.881Z" agent="Mozilla/5.0 (Windows NT 10.0; Win64; x64) AppleWebKit/537.36 (KHTML, like Gecko) Chrome/116.0.0.0 Safari/537.36" version="21.7.0" etag="nCP3pFTqdsLIcNXkG5ji" type="github">
  <diagram name="Halaman-1" id="RTWN5fb38jEpWfIeOcNE">
    <mxGraphModel>
      <root>
        <mxCell id="0" />
        <mxCell id="1" parent="0" />
      </root>
    </mxGraphModel>
  </diagram>
</mxfile>
